HIERARCHY
ROOT SimulationBone
{
	OFFSET 0.000000 0.000000 0.000000
	CHANNELS 6 Xposition Yposition Zposition Zrotation Yrotation Xrotation 
	JOINT Hips
	{
		OFFSET 0.000000 0.000000 0.000000
		CHANNELS 6 Xposition Yposition Zposition Zrotation Yrotation Xrotation 
		JOINT LeftUpLeg
		{
			OFFSET 0.103456 1.857832 10.548506
			CHANNELS 3 Zrotation Yrotation Xrotation
			JOINT LeftLeg
			{
				OFFSET 43.499996 -0.000050 0.000004
				CHANNELS 3 Zrotation Yrotation Xrotation
				JOINT LeftFoot
				{
					OFFSET 42.372196 0.000023 -0.000001
					CHANNELS 3 Zrotation Yrotation Xrotation
					JOINT LeftToe
					{
						OFFSET 17.299999 -0.000001 0.000005
						CHANNELS 3 Zrotation Yrotation Xrotation
						End Site
						{
							OFFSET 0.000000 0.000000 0.000000
						}
					}
				}
			}
		}
		JOINT RightUpLeg
		{
			OFFSET 0.103461 1.857838 -10.548502
			CHANNELS 3 Zrotation Yrotation Xrotation
			JOINT RightLeg
			{
				OFFSET 43.500053 -0.000023 0.000017
				CHANNELS 3 Zrotation Yrotation Xrotation
				JOINT RightFoot
				{
					OFFSET 42.372261 -0.000019 0.000013
					CHANNELS 3 Zrotation Yrotation Xrotation
					JOINT RightToe
					{
						OFFSET 17.299999 -0.000002 0.000004
						CHANNELS 3 Zrotation Yrotation Xrotation
						End Site
						{
							OFFSET 0.000000 0.000000 0.000000
						}
					}
				}
			}
		}
		JOINT Spine
		{
			OFFSET 6.901962 -2.603720 0.000005
			CHANNELS 3 Zrotation Yrotation Xrotation
			JOINT Spine1
			{
				OFFSET 12.588104 -0.000017 -0.000004
				CHANNELS 3 Zrotation Yrotation Xrotation
				JOINT Spine2
				{
					OFFSET 12.343203 0.000008 0.000001
					CHANNELS 3 Zrotation Yrotation Xrotation
					JOINT Neck
					{
						OFFSET 25.832893 0.000002 -0.000003
						CHANNELS 3 Zrotation Yrotation Xrotation
						JOINT Head
						{
							OFFSET 11.766610 0.000004 -0.000002
							CHANNELS 3 Zrotation Yrotation Xrotation
							End Site
							{
								OFFSET 0.000000 0.000000 0.000000
							}
						}
					}
					JOINT LeftShoulder
					{
						OFFSET 19.745901 -1.480358 6.000100
						CHANNELS 3 Zrotation Yrotation Xrotation
						JOINT LeftArm
						{
							OFFSET 11.284128 -0.000004 -0.000015
							CHANNELS 3 Zrotation Yrotation Xrotation
							JOINT LeftForeArm
							{
								OFFSET 33.000053 0.000025 0.000029
								CHANNELS 3 Zrotation Yrotation Xrotation
								JOINT LeftHand
								{
									OFFSET 25.200005 0.000009 -0.000002
									CHANNELS 3 Zrotation Yrotation Xrotation
									End Site
									{
										OFFSET 0.000000 0.000000 0.000000
									}
								}
							}
						}
					}
					JOINT RightShoulder
					{
						OFFSET 19.746098 -1.480389 -6.000077
						CHANNELS 3 Zrotation Yrotation Xrotation
						JOINT RightArm
						{
							OFFSET 11.284138 -0.000023 -0.000010
							CHANNELS 3 Zrotation Yrotation Xrotation
							JOINT RightForeArm
							{
								OFFSET 33.000103 0.000022 0.000003
								CHANNELS 3 Zrotation Yrotation Xrotation
								JOINT RightHand
								{
									OFFSET 25.199776 0.000131 0.000429
									CHANNELS 3 Zrotation Yrotation Xrotation
									End Site
									{
										OFFSET 0.000000 0.000000 0.000000
									}
								}
							}
						}
					}
				}
			}
		}
	}
}
MOTION
Frames: 13
Frame Time: 0.016667
188.248990 0.000000 57.761846 0.000000 -89.258655 0.000000 0.730586 87.137177 -0.050462 95.258069 1.607727 -178.747297 -162.034941 -1.954607 167.716716 -30.270199 -0.311416 5.599219 90.135970 -4.059762 -1.700105 21.454555 0.003098 -0.000003 158.571311 -6.762299 -176.474876 -17.555564 2.856499 12.264231 67.253580 -11.742130 -7.883498 21.454558 -0.003113 -0.000018 8.072798 0.945142 -1.500560 6.108294 1.967751 -2.949761 5.790445 1.950048 -2.961566 -1.490015 -0.424206 -2.065377 4.546425 1.779863 -2.420816 173.443201 -70.854795 5.466742 -26.339264 49.106860 23.917928 -48.619809 -22.746849 2.224086 10.628001 -17.161417 -3.386204 153.736506 67.677767 -25.954571 8.454096 -55.532346 -53.536554 -26.651071 18.754969 -1.433347 14.800460 -0.075897 -5.109904 
188.163666 0.000000 59.738864 0.000000 -89.064812 0.000000 0.775782 87.232989 0.258120 95.428354 2.779669 -178.303392 -163.610624 -4.299833 166.930170 -35.231932 0.672247 6.631708 87.218360 -5.347078 -4.157177 21.454555 0.003097 -0.000001 159.149355 -7.825094 -176.820401 -19.107468 3.456284 13.093744 68.798631 -12.136850 -7.749933 21.454558 -0.003115 -0.000019 8.109329 1.281305 -1.502263 6.173610 2.640499 -2.935044 5.855595 2.622873 -2.950924 -1.363986 0.015823 -2.354584 4.145650 1.332375 -2.511794 172.977857 -71.066676 5.939301 -26.136771 50.279982 25.299479 -46.056576 -22.454641 2.120855 11.303904 -16.985753 -4.714145 153.932338 67.492334 -25.764736 7.804170 -55.135390 -52.604595 -26.485973 18.658046 -1.424286 15.030503 0.008424 -4.837938 
188.073841 0.000000 61.702328 0.000000 -88.915228 0.000000 0.796350 87.304428 0.558515 95.686850 3.850158 -177.793598 -165.749567 -6.583402 166.981350 -41.050368 1.650019 7.266688 83.932321 -6.624687 -7.037455 21.454553 0.003095 0.000002 159.732156 -8.672189 -176.144104 -20.910119 3.930033 13.287892 70.971620 -11.885006 -7.145843 21.454560 -0.003115 -0.000019 8.195881 1.597031 -1.519803 6.339295 3.274495 -2.951290 6.021091 3.256761 -2.971015 -1.518233 0.391759 -2.613808 3.853774 1.048761 -2.613444 172.400395 -71.369907 6.523854 -26.046910 51.482557 26.575674 -43.296995 -21.947519 2.004962 12.045646 -16.577738 -6.004321 153.658410 67.477307 -26.047793 6.902713 -54.908500 -51.419752 -26.477197 18.632759 -1.422582 15.133409 0.122340 -4.634464 
187.979943 0.000000 63.652061 0.000000 -88.809392 0.000000 0.825573 87.403696 0.810613 96.021032 4.676036 -177.256247 -168.347370 -8.386569 168.255846 -47.357179 2.475862 7.288734 80.243602 -7.588157 -9.495488 21.454548 0.003089 0.000002 160.578273 -9.479122 -175.086236 -22.363500 3.912296 13.129313 72.960325 -11.507780 -6.861786 21.454561 -0.003118 -0.000019 8.308179 1.844345 -1.551105 6.557651 3.773201 -2.997085 6.239280 3.755185 -3.019817 -1.891940 0.653755 -2.849135 3.995208 1.098916 -2.770161 171.969917 -71.738597 6.954286 -26.071595 52.578217 27.884067 -40.567492 -21.297136 1.884893 12.817058 -15.729764 -7.046540 152.970264 67.615944 -26.747337 5.726251 -54.906035 -50.247324 -26.561899 18.749801 -1.431734 15.031532 0.296110 -4.344427 
187.885619 0.000000 65.589866 0.000000 -88.743507 0.000000 0.913795 87.615952 1.030202 96.332100 5.170596 -176.755506 -171.383885 -9.627900 170.196949 -53.677776 3.150880 7.049802 75.575414 -8.465699 -11.299252 21.454545 0.003086 0.000001 161.809190 -10.157004 -174.065732 -23.119712 3.608454 12.837628 74.569047 -11.143221 -6.846936 21.454562 -0.003118 -0.000018 8.403621 1.997345 -1.585236 6.744181 4.083259 -3.053566 6.425699 4.064898 -3.078160 -2.215806 0.768202 -3.071322 4.257364 1.425578 -2.999328 171.691789 -72.003358 7.231175 -25.891853 53.351989 29.540188 -38.134270 -20.494720 1.767214 13.606255 -14.446192 -7.762536 151.972596 67.799446 -27.761837 4.495107 -55.034667 -49.035231 -26.867284 18.991696 -1.452134 14.910233 0.411749 -4.344021 
187.793682 0.000000 67.518333 0.000000 -88.715413 0.000000 1.084529 87.984997 1.234719 96.537598 5.327432 -176.372270 -174.740631 -10.371291 172.125406 -59.556546 3.764783 6.863356 69.854440 -9.461764 -12.433708 21.454547 0.003091 0.000000 163.443323 -10.619643 -173.439525 -23.057598 3.338398 12.599875 75.805340 -10.863271 -6.875158 21.454559 -0.003110 -0.000018 8.450986 2.049835 -1.599332 6.837342 4.190159 -3.077045 6.518816 4.171650 -3.102288 -2.240973 0.747112 -3.297789 4.281259 1.907067 -3.304560 171.484677 -72.030597 7.443197 -25.240547 53.646288 31.770586 -36.200825 -19.557096 1.656902 14.367252 -12.734590 -8.069764 150.841003 67.914017 -28.917673 3.439548 -55.155751 -47.729879 -27.527294 19.314675 -1.484149 14.948297 0.389714 -4.943695 
187.703932 0.000000 69.440443 0.000000 -88.725759 0.000000 1.238627 88.356247 1.395716 96.714999 5.398585 -176.225220 -177.992462 -10.744594 173.839516 -64.771400 4.264628 6.363818 65.561701 -10.095732 -13.407544 21.454551 0.003097 0.000001 165.192428 -11.070098 -173.557607 -22.699809 3.271737 12.620753 76.867296 -10.772232 -6.860055 21.454557 -0.003102 -0.000017 8.482588 2.052665 -1.530888 6.903108 4.192597 -2.938783 6.584532 4.174917 -2.964055 -2.009525 0.762323 -3.573179 4.160766 2.399285 -3.656194 171.159390 -71.976953 7.779578 -24.379401 53.659713 34.251612 -34.680838 -18.680224 1.565394 14.872042 -10.402432 -7.730284 149.931898 67.917711 -29.851674 2.543415 -55.088038 -46.545839 -28.510443 19.658545 -1.524470 15.039945 0.460449 -5.664694 
187.613972 0.000000 71.360266 0.000000 -88.776864 0.000000 1.284577 88.580330 1.484012 96.951565 5.606274 -176.398556 179.214566 -10.875893 175.277666 -69.193898 4.514394 5.201720 64.987496 -9.828227 -14.629910 21.454552 0.003095 0.000003 166.785681 -11.675461 -174.602872 -22.577095 3.474450 13.014666 77.954477 -10.921988 -6.773139 21.454558 -0.003102 -0.000015 8.534502 2.054482 -1.334428 7.014313 4.185735 -2.543780 6.695628 4.170440 -2.569029 -1.638164 0.953152 -3.919433 4.066421 2.780216 -4.011124 170.627703 -71.991193 8.325729 -23.577465 53.630144 36.659409 -33.419219 -18.055950 1.497377 14.960745 -7.396420 -6.641051 149.514587 67.815796 -30.287530 1.727317 -54.704500 -45.684595 -29.736063 19.969323 -1.567932 15.033757 0.870372 -5.974449 
187.521743 0.000000 73.281014 0.000000 -88.869743 0.000000 1.288824 88.727097 1.519766 97.203931 5.797530 -176.815660 176.685765 -10.752806 176.432761 -72.848229 4.501375 3.704710 67.014380 -8.576178 -15.074246 21.454550 0.003089 0.000005 168.312103 -12.250506 -176.058617 -22.616022 3.772946 13.489056 79.081664 -11.122985 -6.672996 21.454560 -0.003103 -0.000014 8.594428 2.038347 -1.072805 7.144140 4.138762 -2.019247 6.825352 4.126635 -2.044231 -1.244863 1.169319 -4.244498 4.016103 3.031679 -4.317978 170.350613 -71.906397 8.613734 -22.709143 53.523283 39.131215 -32.283978 -17.679381 1.447883 14.775617 -4.435417 -5.308334 149.330391 67.703182 -30.484652 0.853250 -54.129090 -44.977389 -31.094422 20.233749 -1.612587 14.899955 1.634075 -5.916449 
187.425117 0.000000 75.202718 0.000000 -89.003768 0.000000 1.333225 88.901093 1.527973 97.406909 5.775559 -177.373806 174.162837 -10.336744 177.300984 -75.744115 4.319421 2.257365 69.878984 -6.599455 -13.768308 21.454545 0.003085 0.000005 169.905282 -12.585083 -177.309629 -22.606071 3.968935 13.703738 80.202608 -11.159407 -6.623870 21.454559 -0.003100 -0.000014 8.641904 1.977829 -0.820821 7.248835 4.002964 -1.517259 6.930008 3.993865 -1.541436 -0.920314 1.238849 -4.456206 3.983271 3.164871 -4.535289 170.771342 -71.570288 8.193361 -21.615585 53.290997 41.719167 -31.200155 -17.471620 1.412300 14.478132 -2.293687 -4.248130 149.069993 67.671210 -30.754387 -0.201660 -53.522308 -44.190313 -32.492057 20.458761 -1.657130 14.655656 2.664622 -5.701048 
187.321709 0.000000 77.124018 0.000000 -89.181710 0.000000 1.393073 89.126411 1.504750 97.532963 5.545882 -178.010706 171.669619 -9.690405 177.856295 -77.700518 4.132642 0.840054 72.396152 -4.517120 -11.647750 21.454545 0.003084 0.000004 171.597698 -12.633700 -178.092320 -22.373618 4.009678 13.535612 81.212949 -10.960097 -6.652021 21.454558 -0.003101 -0.000015 8.673037 1.873128 -0.592508 7.319601 3.779796 -1.066116 7.000800 3.773420 -1.088950 -0.655104 1.200782 -4.564732 3.916582 3.206019 -4.666776 171.697486 -71.192165 7.253642 -20.299746 53.159589 43.763470 -30.291089 -17.255354 1.379822 14.321207 -1.184990 -3.505569 148.746724 67.721514 -31.082891 -1.419106 -52.958669 -43.220808 -33.931197 20.690825 -1.704220 14.370115 3.692074 -5.622973 
187.211246 0.000000 79.045637 0.000000 -89.408138 0.000000 1.423405 89.389875 1.446342 97.571633 5.179520 -178.670464 169.262759 -8.905507 178.117782 -78.586658 4.083154 -0.635416 73.724006 -2.744504 -9.890043 21.454551 0.003088 0.000002 173.356132 -12.436126 -178.325454 -21.861979 3.901734 12.980097 82.048220 -10.525384 -6.751874 21.454555 -0.003111 -0.000016 8.688825 1.735586 -0.386966 7.358093 3.492117 -0.663285 7.039371 3.488178 -0.684375 -0.426040 1.125438 -4.602608 3.784187 3.187569 -4.731022 172.814042 -71.005570 6.110035 -18.755781 53.365067 44.744677 -29.654654 -16.888931 1.343867 14.495961 -1.149655 -3.070583 148.418140 67.835343 -31.412337 -2.745700 -52.480361 -42.037798 -35.418587 20.980566 -1.758367 14.101976 4.481396 -5.894324 
187.094789 0.000000 80.972023 0.000000 -89.682801 0.000000 1.411455 89.609688 1.369923 97.544194 4.809974 -179.294821 166.872832 -8.066599 178.277882 -78.646226 4.172331 -2.092133 74.170983 -1.197596 -8.400317 21.454558 0.003095 0.000001 174.964475 -12.181391 -178.308768 -21.455718 3.725125 12.294025 82.865104 -9.997787 -6.825543 21.454555 -0.003119 -0.000018 8.692965 1.594680 -0.204496 7.371636 3.199027 -0.307298 7.053009 3.197247 -0.326615 -0.250921 0.994101 -4.594223 3.658681 3.152399 -4.760838 173.777484 -70.982526 5.118151 -16.964973 53.826216 45.245088 -29.083330 -16.472046 1.306445 14.776061 -2.065605 -3.190581 147.996715 67.999100 -31.833437 -4.115851 -52.091215 -40.780497 -36.879660 21.356608 -1.818365 13.851390 5.130777 -6.327017 
